<?xml version="1.0" encoding="UTF-8"?>
<!DOCTYPE svg PUBLIC "-//W3C//DTD SVG 1.1//EN" "http://www.w3.org/Graphics/SVG/1.1/DTD/svg11.dtd">
<svg version="1.2" width="210mm" height="210mm" viewBox="0 0 21000 20000"
     preserveAspectRatio="xMidYMid" fill-rule="evenodd" stroke-width="28.222"
     stroke-linejoin="round" xmlns="http://www.w3.org/2000/svg"
     xml:space="preserve">
 <defs class="ClipPathGroup">
  <clipPath id="presentation_clip_path" clipPathUnits="userSpaceOnUse">
   <rect x="0" y="0" width="21000" height="21000"/>
  </clipPath>
 </defs>
 <g class="SlideGroup">
  <g>
   <g id="container-id1">
    <g id="id1" class="Slide" clip-path="url(#presentation_clip_path)">
     <g class="Page">
      <g class="com.sun.star.drawing.ClosedBezierShape">
       <g id="id3">
        <rect class="BoundingBox" stroke="none" fill="none" x="0" y="-1" width="20810" height="20450"/>
        <path fill="#151515" stroke="none" d="M 19878,5078 C 19757,5685 19515,5988 19152,5988 18789,5988 17904,6010 16497,6054 15423,6084 14546,6099 13865,6099 13865,6099 13744,6069 13502,6010 14425,5537 15037,4975 15340,4324 14931,4221 14455,4169 13910,4169 13154,4169 12276,4265 11278,4457 10083,4709 8956,4997 7897,5322 7549,5455 7042,5633 6377,5855 6301,5869 6157,5877 5945,5877 5189,5877 4554,5640 4039,5167 L 4039,5855 C 4039,6461 3873,7193 3540,8050 3147,9041 2716,9588 2247,9692 1611,9337 1294,8708 1294,7806 1294,7319 1415,6609 1657,5677 1899,4746 2020,4029 2020,3526 2020,3319 2005,3112 1974,2905 2322,3112 2663,3312 2995,3504 3343,3740 3616,4029 3812,4369 5386,4043 6967,3585 8555,2994 L 8555,2861 C 8570,2476 8442,2055 8169,1597 7927,1197 7685,806 7443,421 L 7579,288 C 8018,96 8540,0 9145,0 9599,0 10106,118 10665,355 11331,650 11664,983 11664,1353 11664,1441 11611,1600 11505,1829 11399,2059 11346,2240 11346,2373 11346,2447 11354,2521 11369,2595 13335,2210 14788,2018 15726,2018 16225,2018 16875,2240 17677,2683 18388,3097 18940,3511 19334,3925 19591,4221 19772,4605 19878,5078 Z M 13048,6498 C 13048,6853 12761,7156 12186,7407 11671,7570 10907,7799 9894,8095 9349,8272 8547,8538 7488,8893 7110,8760 6725,8468 6331,8017 5938,7566 5711,7148 5650,6764 L 5764,6587 C 6006,6734 6324,6808 6717,6808 7156,6808 7897,6587 8941,6143 9985,5699 10839,5478 11505,5478 11883,5478 12235,5566 12560,5744 12885,5921 13048,6173 13048,6498 Z M 20809,18230 C 20809,18659 20703,18984 20491,19206 20188,19531 19379,19827 18063,20093 16943,20329 16043,20448 15363,20448 13426,20448 12027,20085 11165,19361 10257,18577 9803,17247 9803,15369 9803,14925 9856,13757 9962,11865 L 9236,11466 C 8313,11599 7617,11754 7148,11932 7693,12079 8056,12198 8237,12286 8661,12493 8888,12759 8918,13085 8842,13159 8555,13735 8056,14815 7526,15953 6974,16884 6399,17609 5779,18407 4856,19036 3631,19494 2557,19878 1437,20085 272,20115 L 0,19960 C 1800,18851 3116,17912 3949,17143 5295,15916 6150,14600 6513,13196 L 5968,12375 C 5620,12434 5212,12575 4743,12796 4365,12974 3979,13159 3585,13351 3222,13233 2867,12863 2519,12242 2277,11754 2027,11274 1770,10800 L 1838,10667 C 2322,10904 2837,11037 3381,11067 8010,9440 11376,8627 13479,8627 14311,8627 15075,8760 15771,9026 16679,9396 17133,9928 17133,10623 17133,11170 16845,11444 16270,11444 15892,11444 15336,11370 14602,11222 13869,11074 13320,11000 12957,11000 12655,11000 12367,11044 12095,11133 L 12458,11577 C 12125,12390 11959,13802 11959,15813 11959,16803 12284,17461 12935,17786 13404,18038 13857,18163 14296,18163 15960,18163 17072,17461 17632,16056 17949,15229 18123,13824 18154,11843 L 18335,11865 C 18592,12249 18834,12796 19061,13506 19379,14467 19576,15036 19651,15214 19909,15716 20249,16470 20673,17476 20763,17742 20809,17993 20809,18230 Z"/>
       </g>
      </g>
     </g>
    </g>
   </g>
  </g>
 </g>
</svg>
