<?xml version="1.0" encoding="UTF-8"?>
<!DOCTYPE svg PUBLIC "-//W3C//DTD SVG 1.1//EN" "http://www.w3.org/Graphics/SVG/1.1/DTD/svg11.dtd">
<!-- Creator: CorelDRAW X7 -->
<svg xmlns="http://www.w3.org/2000/svg" xml:space="preserve" width="140mm" height="140mm" version="1.1" style="shape-rendering:geometricPrecision; text-rendering:geometricPrecision; image-rendering:optimizeQuality; fill-rule:evenodd; clip-rule:evenodd"
viewBox="0 0 14000 14000"
 xmlns:xlink="http://www.w3.org/1999/xlink">
 <defs>
  <style type="text/css">
   <![CDATA[
    .fil0 {fill:none}
    .fil1 {fill:white}
   ]]>
  </style>
 </defs>
 <g id="Capa_x0020_1">
  <metadata id="CorelCorpID_0Corel-Layer"/>
  <rect class="fil0" width="14000" height="14000"/>
  <path class="fil1" d="M3876 2158l-1185 90c-291,7 -1043,20 -1225,111 14,90 -38,65 262,184 570,227 1081,22 1316,149 92,50 290,501 334,632 130,392 258,2552 109,2694l-1642 214c-272,61 -1657,129 -1732,166 -2,1 -127,34 11,212 38,48 108,86 161,123 357,178 347,148 833,299 379,68 981,-101 1366,-207l431 -121c119,-29 421,-92 534,-103 11,324 -155,1614 -276,1941 -174,476 -87,318 -312,811 -123,269 -13,196 -373,763l-377 501c-69,94 -121,141 -190,236 -92,125 -100,142 -204,253l-408 467c-131,186 -316,304 -377,498 402,-74 434,-115 624,-202 937,-385 1962,-1841 2245,-2802l225 -791c63,-256 107,-590 160,-864 52,-273 67,-783 62,-953l924 -202c325,-47 660,-138 996,-121 59,475 -26,1175 -34,1680l-71 3383c-7,464 -90,1145 294,1488 625,-217 512,-1086 508,-1876 -4,-1202 -112,-2384 -130,-3558 -5,-297 -56,-1053 26,-1270 148,-83 1799,-189 2085,-178 113,-13 46,-14 148,-73 7,-148 -13,-234 -104,-306 -249,-198 -987,-154 -1259,-121 -386,47 -583,113 -642,119 -112,16 -241,34 -241,31 -9,-63 -12,-186 -15,-316l4 -778c37,-1008 469,-1385 17,-1735 -152,-119 -343,-258 -538,-266 -523,-21 -209,493 -169,832 81,100 204,1208 204,1382 5,542 20,833 28,989 0,5 -234,49 -487,96 -176,17 -1358,287 -1585,293 4,-116 5,-118 2,-283l35 -1095c66,-1504 740,-1158 -522,-1980l1038 -158c446,-42 1014,-140 1488,-197 573,-110 1186,-247 1758,-334 221,-34 343,-76 374,-257 -102,-37 -145,-75 -225,-102 -171,-58 -737,-140 -907,-91 -406,119 -897,306 -1305,376 -527,90 -1606,371 -2067,327z"/>
  <path class="fil1" d="M8051 11727c-52,26 -48,28 -108,64 -191,114 -267,118 -307,240 271,-3 619,-136 872,-229 82,-31 71,-27 127,-53l384 -147c345,-167 632,-265 959,-455l670 -385c152,-106 262,-178 427,-279 192,-118 257,-137 421,-282 142,-126 246,-196 402,-306 308,-217 1157,-1003 1494,-1322l359 -348c166,-141 246,-226 116,-412 -122,-173 -755,-982 -1013,-728 -160,157 221,313 -169,814l-307 399c-472,534 -1415,1467 -2026,1954 -678,539 -1537,1102 -2301,1475z"/>
  <path class="fil1" d="M11774 3974c-33,109 323,316 162,763 -106,293 -450,631 -684,829l-1291 1281c-104,103 -164,152 -258,236l-1385 1080c-60,70 -11,-6 -54,75 100,-1 161,-22 264,-52l669 -316c23,-10 74,-29 94,-40l219 -132c7,-4 15,-10 21,-14l270 -154c377,-239 1050,-676 1376,-948 131,-110 230,-177 378,-293 272,-213 439,-436 681,-618 88,-67 109,-79 180,-141 422,-376 125,-145 570,-453 287,-199 5,-428 -306,-724l-275 -221c-175,-116 -423,-287 -631,-158z"/>
  <path class="fil1" d="M8556 4421c173,-7 340,-55 488,-129 9,-5 36,-20 45,-25 7,-4 16,-9 23,-13l535 -308c6,-4 15,-10 22,-14l524 -352c116,-90 177,-98 297,-196 107,-87 190,-123 286,-208l770 -676c148,-163 590,-565 793,-690 377,-231 -152,-682 -381,-863 -88,-69 -163,-122 -274,-181 -161,-86 -207,-144 -359,-146 -588,-4 518,295 -321,1303 -465,559 -1669,1884 -2177,2226l-271 272z"/>
 </g>
</svg>
