<?xml version="1.0" encoding="UTF-8"?>
<!DOCTYPE svg PUBLIC "-//W3C//DTD SVG 1.1//EN" "http://www.w3.org/Graphics/SVG/1.1/DTD/svg11.dtd">
<!-- Creator: CorelDRAW X7 -->
<svg xmlns="http://www.w3.org/2000/svg" xml:space="preserve" width="200mm" height="200mm" version="1.1" style="shape-rendering:geometricPrecision; text-rendering:geometricPrecision; image-rendering:optimizeQuality; fill-rule:evenodd; clip-rule:evenodd"
viewBox="0 0 20000 20000"
 xmlns:xlink="http://www.w3.org/1999/xlink">
 <defs>
  <style type="text/css">
   <![CDATA[
    .str0 {stroke:#F44335;stroke-width:7.62}
    .fil0 {fill:#F44335}
    .fil1 {fill:white}
   ]]>
  </style>
 </defs>
 <g id="Capa_x0020_1">
  <metadata id="CorelCorpID_0Corel-Layer"/>
  <polygon class="fil0 str0" points="0,0 20000,0 20000,20000 0,20000 "/>
  <path class="fil1" d="M6237 18064c-74,36 -68,39 -154,90 -273,163 -382,168 -438,343 387,-5 884,-194 1245,-327 117,-44 102,-38 182,-76l548 -209c494,-240 903,-379 1370,-650l958 -551c217,-151 374,-254 610,-398 273,-168 367,-196 601,-403 203,-180 351,-280 575,-438 439,-309 1653,-1432 2134,-1888l513 -497c236,-202 351,-323 165,-588 -174,-248 -1079,-1403 -1446,-1041 -229,225 315,447 -243,1164l-438 570c-675,762 -2021,2095 -2895,2791 -968,770 -2195,1574 -3287,2108z"/>
  <path class="fil1" d="M11556 6987c-47,156 461,451 232,1090 -151,419 -643,901 -977,1184l-1844 1831c-149,147 -235,217 -369,336l-1979 1543c-86,100 -16,-7 -77,108 143,-1 229,-32 377,-75l956 -452c33,-14 105,-40 134,-56l313 -189c9,-5 21,-14 30,-19l385 -221c539,-342 1501,-966 1966,-1355 187,-157 330,-252 540,-418 389,-305 627,-623 973,-883 126,-95 156,-112 257,-202 603,-536 179,-206 814,-646 411,-285 8,-612 -437,-1035l-392 -315c-250,-166 -605,-410 -902,-226z"/>
  <path class="fil1" d="M6959 7625c248,-9 486,-79 697,-184 13,-6 51,-28 65,-35 10,-6 23,-13 33,-18l763 -441c10,-6 23,-14 33,-19l747 -504c167,-128 254,-140 426,-280 152,-124 270,-175 408,-297l1099 -966c212,-232 843,-806 1134,-985 538,-330 -217,-975 -544,-1233 -126,-99 -234,-175 -392,-259 -230,-122 -297,-206 -513,-208 -840,-6 740,421 -458,1862 -665,798 -2385,2691 -3111,3178l-387 389z"/>
 </g>
</svg>
