<?xml version="1.0" encoding="UTF-8" standalone="no"?>
<svg
   xmlns:dc="http://purl.org/dc/elements/1.1/"
   xmlns:cc="http://creativecommons.org/ns#"
   xmlns:rdf="http://www.w3.org/1999/02/22-rdf-syntax-ns#"
   xmlns:svg="http://www.w3.org/2000/svg"
   xmlns="http://www.w3.org/2000/svg"
   xmlns:sodipodi="http://sodipodi.sourceforge.net/DTD/sodipodi-0.dtd"
   xmlns:inkscape="http://www.inkscape.org/namespaces/inkscape"
   version="1.1"
   width="566.92908"
   height="566.92908"
   id="svg930"
   viewBox="0 0 566.92908 566.92908"
   sodipodi:docname="KScript_logo2.svg"
   inkscape:version="1.0.1 (3bc2e813f5, 2020-09-07)">
  <metadata
     id="metadata936">
    <rdf:RDF>
      <cc:Work
         rdf:about="">
        <dc:format>image/svg+xml</dc:format>
        <dc:type
           rdf:resource="http://purl.org/dc/dcmitype/StillImage" />
        <dc:title></dc:title>
      </cc:Work>
    </rdf:RDF>
  </metadata>
  <defs
     id="defs934" />
  <sodipodi:namedview
     pagecolor="#ffffff"
     bordercolor="#666666"
     borderopacity="1"
     objecttolerance="10"
     gridtolerance="10"
     guidetolerance="10"
     inkscape:pageopacity="0"
     inkscape:pageshadow="2"
     inkscape:window-width="1920"
     inkscape:window-height="1032"
     id="namedview932"
     showgrid="false"
     inkscape:zoom="1.4799029"
     inkscape:cx="283.46454"
     inkscape:cy="283.46454"
     inkscape:window-x="0"
     inkscape:window-y="0"
     inkscape:window-maximized="1"
     inkscape:current-layer="svg930" />
  <path
     d="M -3e-4,0 H 566.9289 V 566.9291 H -3e-4 Z"
     style="fill:none"
     id="path918" />
  <path
     d="m 83.6099,495.8705 49.551,-43.5153 V 114.9201 L 83.6099,71.7663 Z"
     style="fill:#fd4565;fill-rule:evenodd"
     id="path920" />
  <path
     d="m 83.6099,71.7663 49.551,43.1538 H 191.291 V 289.7019 L 354.147,114.9201 334.2336,71.7663 234.4448,182.0872 V 71.7663 Z"
     style="fill:#ebb812;fill-rule:evenodd"
     id="path922" />
  <path
     d="M 334.2336,71.7663 H 531.1188 L 370.437,244.9325 316.3,239.6128 432.1508,114.9201 H 354.147 Z"
     style="fill:#1c338d;fill-rule:evenodd"
     id="path924" />
  <path
     d="M 345.047,495.8705 369.3369,452.7167 268.5726,290.9821 191.291,374.1625 v 78.5542 l -58.1301,-0.3615 -49.551,43.5153 H 234.4448 V 391.0816 l 27.2588,-29.3399 z"
     style="fill:#58d3ab;fill-rule:evenodd"
     id="path926" />
  <path
     d="m 345.047,495.8705 24.2899,-43.1538 h 79.7316 L 316.3,239.6128 l 54.137,5.3197 156.3402,250.938 z"
     style="fill:#ffaad4;fill-rule:evenodd"
     id="path928" />
</svg>
