<?xml version="1.0" encoding="UTF-8"?>
<!DOCTYPE svg PUBLIC "-//W3C//DTD SVG 1.1//EN" "http://www.w3.org/Graphics/SVG/1.1/DTD/svg11.dtd">
<!-- Creator: CorelDRAW 2020 (64-Bit) -->
<svg xmlns="http://www.w3.org/2000/svg" xml:space="preserve" width="200mm" height="200mm" version="1.1" style="shape-rendering:geometricPrecision; text-rendering:geometricPrecision; image-rendering:optimizeQuality; fill-rule:evenodd; clip-rule:evenodd"
viewBox="0 0 20000 20000"
 xmlns:xlink="http://www.w3.org/1999/xlink"
 xmlns:xodm="http://www.corel.com/coreldraw/odm/2003">
 <defs>
  <style type="text/css">
   <![CDATA[
    .fil0 {fill:none}
    .fil3 {fill:#04ABFC}
    .fil4 {fill:#58D3AB}
    .fil2 {fill:#EBB812}
    .fil1 {fill:#FD4565}
    .fil5 {fill:#FFAAD4}
   ]]>
  </style>
 </defs>
 <g id="Layer_x0020_1">
  <metadata id="CorelCorpID_0Corel-Layer"/>
  <polygon class="fil0" points="267.88,58.42 20267.88,58.42 20267.88,20058.42 267.88,20058.42 "/>
  <path class="fil1" d="M3069.04 17388.28l1742.43 -1530.17c-78.91,-70.98 -113.29,-161.64 -113.85,-267.15l0 -11167.17c7.87,-110.56 43.47,-202.18 115.7,-268.94l-1748.72 -1522.92c-74.59,68.78 -114.75,157.17 -115.03,268.31l0 14219.3c12.13,124.32 53.3,212.23 119.47,268.74z"/>
  <path class="fil2" d="M3064.6 2631.93l1748.73 1522.92c57.33,-58.73 137.58,-96.74 254.68,-101.47l1309.95 0.02c212.06,23.74 344.62,136.96 370.41,370.39l2.39 4852.88c17.97,347.15 383.29,485.92 645.07,248.53l4997.06 -5363.08c36.82,-34.17 74.6,-62.71 114.68,-77.54l-701.29 -1520.44c-48.27,20.5 -88.99,51.78 -125.34,89.31l-2761.41 3052.88c-286.08,281.83 -658.3,24.82 -649.37,-243.68l0.46 -2573.52c-12.68,-219.09 -149.97,-337.64 -366.43,-357.37l-4584.23 -1.91c-113.87,4.9 -193.78,44.22 -255.36,102.08z"/>
  <path class="fil3" d="M11805.99 2564.26c47.96,-21.71 98.9,-31.47 151.95,-32.5l5928.79 0c319.65,-4.57 486.07,356.81 279.46,614.83l-4916.24 5298.2c-60.6,65.31 -73.52,135.85 -86.8,205.23l-1908.77 -187.57c6.74,-75.52 31.44,-145.26 86.02,-205.4l3331.72 -3585.96c202.11,-238.97 56.9,-614.67 -282.29,-616.97l-1735.13 0.1c-51.2,0.87 -100.35,10.51 -147.13,30.36l-701.58 -1520.32z"/>
  <path class="fil4" d="M12199.18 17445.78l830.2 -1474.94 -3298.99 -5295.16c-146.01,-203.9 -373.16,-226.92 -579.21,-62.31l-2298.38 2473.81c-66.66,67.98 -99.96,153.11 -104.48,263.48l0 2620.18 -1685.98 -10.48c-104.31,-2.32 -188.4,-35.67 -250.87,-102.25l-1742.41 1530.17c71.3,67.64 157.1,103.31 258.31,104.93l4564.65 0c208.73,-20.77 340.95,-136.52 378.67,-369.52l0 -3173.75c4.45,-107.4 36.44,-187.84 107.98,-269.68l528.09 -568.4c190.08,-171.9 448.34,-151.9 588.36,72.5l2562.88 4124.58c38.15,61.42 89.79,113.46 141.18,136.84z"/>
  <path class="fil5" d="M12199.18 17445.78l830.2 -1474.94 2145.35 0c309.94,-2.92 466.94,-330.2 315.49,-564.85l-4183.94 -6715.57c-41.49,-70.34 -59,-147.6 -51.51,-232.17l1908.38 191.77c-6.69,76.22 3.24,149.76 46.61,217.91l5027.34 8069.2c136.45,276.52 -56.56,543.67 -320.59,556.08l-5535.87 0c-68.97,-2.85 -129.13,-19.13 -181.46,-47.43z"/>
 </g>
</svg>
