<?xml version="1.0" encoding="UTF-8"?>
<!DOCTYPE svg PUBLIC "-//W3C//DTD SVG 1.1//EN" "http://www.w3.org/Graphics/SVG/1.1/DTD/svg11.dtd">
<!-- Creator: CorelDRAW X7 -->
<svg xmlns="http://www.w3.org/2000/svg" xml:space="preserve" width="200mm" height="200mm" version="1.1" style="shape-rendering:geometricPrecision; text-rendering:geometricPrecision; image-rendering:optimizeQuality; fill-rule:evenodd; clip-rule:evenodd"
viewBox="0 0 20000 20000"
 xmlns:xlink="http://www.w3.org/1999/xlink">
 <defs>
  <style type="text/css">
   <![CDATA[
    .str0 {stroke:#373435;stroke-width:20}
    .fil4 {fill:none}
    .fil0 {fill:#FEFEFE}
    .fil3 {fill:#606062}
    .fil2 {fill:#373435}
    .fil1 {fill:#00AFEF}
   ]]>
  </style>
 </defs>
 <g id="Capa_x0020_1">
  <metadata id="CorelCorpID_0Corel-Layer"/>
  <polygon class="fil0 str0" points="6191,13934 10073,5317 10638,5689 12379,14234 "/>
  <polygon class="fil1" points="3257,19865 15468,19865 13780,18497 12436,14519 5989,14519 "/>
  <polygon class="fil2" points="12498,14800 5887,14798 6284,13667 12261,13669 "/>
  <path class="fil2" d="M10177 6119l-6373 13746 -1093 0 7061 -15232c271,452 415,944 405,1486z"/>
  <path class="fil3" d="M5075 4492l0 108 507 0c0,-465 103,-948 296,-1335 317,-634 882,-1111 1734,-1111 406,0 750,155 1010,403l439 503c32,45 62,99 90,146 31,53 55,90 85,150 106,207 217,419 304,639 83,207 160,420 232,636l0 2 1114 0 -2 -7c-160,-646 -365,-1468 -591,-2037 -27,-69 -52,-135 -79,-211 -28,-81 -55,-132 -84,-206 -104,-265 -241,-531 -379,-762 -38,-64 -71,-114 -113,-176 -264,-389 -632,-754 -1073,-938 -1099,-459 -2043,107 -2649,1014 -587,877 -841,2119 -841,3182z"/>
  <path class="fil2" d="M9772 4633c208,627 370,1283 499,1929l960 4095c479,2163 1098,6033 2028,7866 284,560 753,959 1349,1187 331,126 656,176 1084,146 330,-23 723,-199 931,-356 63,-48 117,-82 171,-136 177,-177 301,-286 450,-511 177,-266 319,-557 413,-874 193,-655 283,-1432 283,-2271l-507 0c-27,320 -93,650 -193,949 -191,571 -514,1004 -1115,1167 -693,189 -1375,-128 -1813,-626 -333,-378 -525,-835 -713,-1299 -109,-269 -206,-579 -290,-869 -170,-593 -326,-1215 -456,-1827l-628 -2815c-410,-1862 -832,-3727 -1294,-5574 -14,-58 -29,-119 -45,-181 -252,-467 -891,-423 -1114,0l0 0z"/>
  <rect class="fil4" width="20000" height="20000"/>
 </g>
</svg>
