<?xml version="1.0" encoding="UTF-8"?>
<!DOCTYPE svg PUBLIC "-//W3C//DTD SVG 1.1//EN" "http://www.w3.org/Graphics/SVG/1.1/DTD/svg11.dtd">
<!-- Creator: CorelDRAW X7 -->
<svg xmlns="http://www.w3.org/2000/svg" xml:space="preserve" width="338.667mm" height="169.333mm" version="1.1" style="shape-rendering:geometricPrecision; text-rendering:geometricPrecision; image-rendering:optimizeQuality; fill-rule:evenodd; clip-rule:evenodd"
viewBox="0 0 33867 16933"
 xmlns:xlink="http://www.w3.org/1999/xlink"
 sodipodi:role="line"
 xmlns:dc="http://purl.org/dc/elements/1.1/"
 xmlns:cc="http://creativecommons.org/ns#"
 xmlns:rdf="http://www.w3.org/1999/02/22-rdf-syntax-ns#"
 xmlns:svg="http://www.w3.org/2000/svg"
 xmlns:sodipodi="http://sodipodi.sourceforge.net/DTD/sodipodi-0.dtd"
 xmlns:inkscape="http://www.inkscape.org/namespaces/inkscape"
 sodipodi:docname="misti-logo-beta.svg"
 inkscape:version="1.0 (4035a4fb49, 2020-05-01)">
 <defs>
  <style type="text/css">
   <![CDATA[
    .str0 {stroke:#F1D91D;stroke-width:20}
    .fil0 {fill:#F1D91D}
    .fil1 {fill:#151515;fill-rule:nonzero}
   ]]>
  </style>
 </defs>
 <g id="Capa_x0020_1">
  <metadata id="CorelCorpID_0Corel-Layer"/>
  <rect class="fil0 str0" y="3" width="33867" height="16933"/>
  <sodipodi:namedview inkscape:window-maximized="1" inkscape:window-y="0" inkscape:window-x="0" inkscape:window-height="1026" inkscape:window-width="1920" showgrid="false" inkscape:document-rotation="0" inkscape:current-layer="layer1" inkscape:document-units="mm" inkscape:cy="531.53327" inkscape:cx="999.98106" inkscape:zoom="0.5" inkscape:pageshadow="2" inkscape:pageopacity="0.0" borderopacity="1.0" bordercolor="#666666" pagecolor="#ffffff" id="base" units="px" showguides="true" inkscape:guide-bbox="true"/>
  <path class="fil1" d="M15016 10314l58 267c0,113 -60,248 -178,402 -311,405 -807,870 -1492,1396 -687,525 -1190,788 -1516,788 -325,0 -578,-97 -761,-287 -183,-190 -275,-410 -275,-653 0,-292 306,-938 916,-1935 918,-1482 2092,-3215 3516,-5196 -301,311 -1101,1147 -2400,2514 -2875,3012 -4555,4718 -5039,5118 -82,65 -198,99 -350,99 -154,0 -315,-63 -484,-188 -169,-125 -255,-265 -255,-419l0 -36c19,-198 474,-1164 1364,-2902 889,-1737 1633,-3118 2236,-4145 -889,981 -1788,2073 -2697,3278 -1725,2286 -2990,4236 -3790,5846 -70,149 -157,224 -261,224 -103,0 -255,-24 -453,-77 -414,-114 -621,-311 -621,-593 0,-169 347,-776 1038,-1817 692,-1043 1494,-2183 2408,-3417 913,-1236 1860,-2427 2838,-3569 1350,-1583 2220,-2374 2605,-2374 61,0 121,17 176,46 58,31 92,46 106,46 15,0 29,-7 44,-19 60,-77 180,-114 364,-114 180,0 356,34 527,106 174,70 258,150 258,239 0,58 -234,506 -706,1349 -1576,2796 -2636,4716 -3176,5760 518,-624 1258,-1456 2219,-2492 964,-1034 1974,-2067 3034,-3099 1379,-1337 2203,-2005 2470,-2005 109,0 246,24 410,70 292,87 571,128 839,128 77,14 142,46 195,96 53,48 82,99 82,152 0,51 -15,94 -44,128 -1530,2031 -2819,3824 -3867,5378 -1051,1552 -1697,2603 -1943,3150 494,-104 1232,-696 2210,-1774 44,-55 72,-94 92,-113 19,-17 36,-36 50,-55 80,-94 140,-36 183,176 20,122 32,209 39,257 7,51 14,102 22,157 7,53 9,89 9,109z"/>
  <path id="1" class="fil1" d="M19981 5166c0,270 -126,538 -374,810 -251,270 -511,405 -781,405 -270,0 -407,-142 -407,-424 0,-282 120,-552 357,-808 238,-257 501,-385 788,-385 127,0 229,36 303,106 75,70 114,169 114,296zm-1145 6164c0,140 -15,241 -41,304 -231,470 -598,851 -1101,1140 -504,289 -943,434 -1314,434 -373,0 -691,-126 -961,-374 -268,-250 -403,-503 -403,-764 0,-258 130,-634 388,-1128 261,-494 518,-951 779,-1371 258,-419 388,-646 388,-679 0,-36 -49,-106 -145,-210 -96,-104 -145,-181 -145,-229 0,-50 97,-178 292,-388 195,-209 434,-417 713,-622 280,-204 494,-306 644,-306 147,0 282,65 397,198 118,130 179,251 179,359 0,109 -562,1128 -1682,3058 -15,27 -53,89 -116,186 -63,96 -113,176 -149,241 -34,62 -75,139 -123,229 -94,188 -140,347 -140,472 0,161 108,241 323,241 217,0 441,-75 675,-222 233,-149 433,-313 604,-491 441,-475 694,-714 755,-714 123,0 183,212 183,636z"/>
  <path id="2" class="fil1" d="M19091 11506l-7 114c0,118 46,219 135,303 89,85 171,128 246,128 566,0 1065,-87 1501,-255 434,-169 653,-338 653,-509 0,-79 -79,-149 -236,-207 -159,-60 -424,-133 -798,-219 -376,-87 -648,-157 -817,-205 -168,-51 -303,-97 -402,-138 -99,-43 -200,-101 -304,-176 -221,-156 -332,-388 -332,-696 0,-308 115,-614 344,-918 227,-304 514,-564 858,-781 342,-214 711,-405 1109,-571 781,-325 1436,-487 1969,-487 523,0 845,113 966,340 38,80 58,169 58,267l0 51c0,248 -53,443 -159,586 -106,139 -273,267 -502,380 -228,114 -409,169 -544,169 -133,0 -219,-10 -253,-29 -36,-17 -65,-43 -89,-72 -24,-31 -53,-53 -89,-68 -34,-14 -53,-50 -53,-106 0,-57 24,-113 72,-173 46,-58 79,-121 99,-188 -311,14 -637,87 -974,217 -340,130 -631,275 -872,434 -244,159 -444,313 -605,457 -159,147 -239,253 -239,323 0,68 109,123 323,167 976,192 1615,359 1921,501 306,140 518,301 636,479 118,179 176,340 176,487 0,301 -121,586 -359,853 -241,270 -538,489 -889,658 -759,371 -1420,557 -1981,557 -564,0 -952,-85 -1167,-258 -212,-171 -320,-374 -320,-610 0,-236 60,-453 181,-653 120,-200 274,-299 462,-299 188,0 282,49 282,147z"/>
  <path id="3" class="fil1" d="M28487 3826l289 70c44,0 82,22 113,63 34,43 51,82 51,120 0,39 -51,140 -149,304 -99,164 -215,352 -350,562 -132,209 -205,322 -214,342 366,-29 626,-44 781,-44 151,0 257,12 313,34 55,19 120,80 195,176 72,96 140,169 200,219 60,48 92,123 92,222 0,99 -61,183 -181,251 -118,67 -248,108 -383,122 -1092,109 -1694,167 -1808,169 -380,586 -915,1494 -1600,2730 -684,1237 -1048,2008 -1089,2319 -19,142 -29,258 -29,347 0,183 97,274 289,274 193,0 408,-74 644,-221 233,-150 450,-311 648,-485 528,-470 810,-706 848,-706 121,0 183,212 183,636 0,232 -106,437 -318,622 -474,410 -875,716 -1200,923 -325,207 -650,311 -973,311 -73,0 -138,-7 -198,-19 -378,-73 -653,-210 -831,-415 -176,-205 -263,-482 -261,-829 3,-349 106,-771 311,-1267 205,-497 463,-1024 774,-1586 508,-913 1017,-1769 1523,-2569l-268 36c-544,61 -862,92 -952,92l-65 0c-135,0 -267,-29 -395,-82 -128,-55 -190,-120 -190,-202 0,-80 34,-157 103,-232 68,-74 109,-135 123,-176 34,-103 157,-219 371,-347 215,-127 374,-195 482,-202 109,-5 215,-12 316,-17 101,-5 215,-10 337,-14 126,-5 222,-10 287,-15l636 -26c396,-593 668,-976 815,-1145 149,-169 234,-263 258,-280 24,-14 70,-24 142,-24l330 -41z"/>
  <path id="4" class="fil1" d="M31333 5166c0,270 -125,538 -374,810 -250,270 -510,405 -780,405 -270,0 -408,-142 -408,-424 0,-282 121,-552 357,-808 239,-257 501,-385 788,-385 128,0 229,36 304,106 74,70 113,169 113,296zm-1145 6164c0,140 -14,241 -41,304 -231,470 -597,851 -1101,1140 -504,289 -942,434 -1313,434 -374,0 -692,-126 -962,-374 -267,-250 -402,-503 -402,-764 0,-258 130,-634 388,-1128 260,-494 518,-951 778,-1371 258,-419 388,-646 388,-679 0,-36 -48,-106 -144,-210 -97,-104 -145,-181 -145,-229 0,-50 96,-178 292,-388 195,-209 433,-417 713,-622 279,-204 494,-306 643,-306 147,0 282,65 398,198 118,130 178,251 178,359 0,109 -561,1128 -1682,3058 -14,27 -53,89 -115,186 -63,96 -114,176 -150,241 -34,62 -75,139 -123,229 -94,188 -140,347 -140,472 0,161 109,241 323,241 217,0 441,-75 675,-222 234,-149 434,-313 605,-491 441,-475 694,-714 754,-714 123,0 183,212 183,636z"/>
 </g>
</svg>
