<?xml version="1.0" encoding="UTF-8"?>
<!DOCTYPE svg PUBLIC "-//W3C//DTD SVG 1.1//EN" "http://www.w3.org/Graphics/SVG/1.1/DTD/svg11.dtd">
<!-- Creator: CorelDRAW X7 -->
<svg xmlns="http://www.w3.org/2000/svg" xml:space="preserve" width="169.333mm" height="169.333mm" version="1.1" style="shape-rendering:geometricPrecision; text-rendering:geometricPrecision; image-rendering:optimizeQuality; fill-rule:evenodd; clip-rule:evenodd"
viewBox="0 0 16933 16933"
 xmlns:xlink="http://www.w3.org/1999/xlink"
 sodipodi:role="line"
 xmlns:dc="http://purl.org/dc/elements/1.1/"
 xmlns:cc="http://creativecommons.org/ns#"
 xmlns:rdf="http://www.w3.org/1999/02/22-rdf-syntax-ns#"
 xmlns:svg="http://www.w3.org/2000/svg"
 xmlns:sodipodi="http://sodipodi.sourceforge.net/DTD/sodipodi-0.dtd"
 xmlns:inkscape="http://www.inkscape.org/namespaces/inkscape"
 sodipodi:docname="misti-logo-beta.svg"
 inkscape:version="1.0 (4035a4fb49, 2020-05-01)">
 <defs>
  <style type="text/css">
   <![CDATA[
    .str0 {stroke:#151515;stroke-width:20}
    .fil0 {fill:#151515}
    .fil1 {fill:#F1D91D;fill-rule:nonzero}
   ]]>
  </style>
 </defs>
 <g id="Capa_x0020_1">
  <metadata id="CorelCorpID_0Corel-Layer"/>
  <rect class="fil0 str0" y="3" width="16933" height="16933"/>
  <sodipodi:namedview inkscape:window-maximized="1" inkscape:window-y="0" inkscape:window-x="0" inkscape:window-height="1026" inkscape:window-width="1920" showgrid="false" inkscape:document-rotation="0" inkscape:current-layer="layer1" inkscape:document-units="mm" inkscape:cy="531.53327" inkscape:cx="999.98106" inkscape:zoom="0.5" inkscape:pageshadow="2" inkscape:pageopacity="0.0" borderopacity="1.0" bordercolor="#666666" pagecolor="#ffffff" id="base" units="px" showguides="true" inkscape:guide-bbox="true"/>
  <path class="fil1" d="M13084 10314l58 267c0,113 -61,248 -179,402 -311,405 -807,870 -1491,1396 -687,525 -1191,788 -1516,788 -325,0 -578,-97 -762,-287 -183,-190 -274,-410 -274,-653 0,-292 306,-938 915,-1935 919,-1482 2092,-3215 3516,-5196 -301,311 -1101,1147 -2400,2514 -2875,3012 -4554,4718 -5039,5118 -82,65 -197,99 -349,99 -154,0 -316,-63 -484,-188 -169,-125 -256,-265 -256,-419l0 -36c19,-198 475,-1164 1364,-2902 889,-1737 1634,-3118 2236,-4145 -889,981 -1788,2073 -2696,3278 -1726,2286 -2991,4236 -3791,5846 -70,149 -156,224 -260,224 -104,0 -256,-24 -453,-77 -415,-114 -622,-311 -622,-593 0,-169 347,-776 1039,-1817 691,-1043 1494,-2183 2407,-3417 913,-1236 1860,-2427 2839,-3569 1349,-1583 2219,-2374 2605,-2374 60,0 120,17 176,46 58,31 91,46 106,46 14,0 29,-7 43,-19 60,-77 181,-114 364,-114 181,0 357,34 528,106 173,70 258,150 258,239 0,58 -234,506 -706,1349 -1576,2796 -2637,4716 -3177,5760 519,-624 1258,-1456 2220,-2492 964,-1034 1973,-2067 3034,-3099 1378,-1337 2202,-2005 2470,-2005 108,0 246,24 409,70 292,87 572,128 839,128 77,14 142,46 195,96 53,48 82,99 82,152 0,51 -14,94 -43,128 -1530,2031 -2820,3824 -3868,5378 -1051,1552 -1696,2603 -1942,3150 494,-104 1231,-696 2210,-1774 43,-55 72,-94 91,-113 19,-17 36,-36 51,-55 79,-94 140,-36 183,176 19,122 31,209 38,257 8,51 15,102 22,157 7,53 10,89 10,109z"/>
 </g>
</svg>
